<svg data-v-423bf9ae="" xmlns="http://www.w3.org/2000/svg" viewBox="0 0 178.74999698428894 60" class="font"><!----><!----><!----><g data-v-423bf9ae="" id="6fbfff60-090c-4188-b91c-50ffd562dc26" fill="white" transform="matrix(4.464285536890945,0,0,4.464285536890945,-4.062498268981841,-15.937499783933198)"><path d="M3.98 17.01C5.85 17.01 6.99 15.90 6.99 13.78L6.99 6.64L6.33 6.64L6.24 7.45L6.22 7.45C5.59 6.86 4.87 6.47 4.06 6.47C2.38 6.47 0.91 7.87 0.91 10.12C0.91 12.45 2.10 13.75 3.85 13.75C4.76 13.75 5.64 13.20 6.20 12.57L6.19 13.69C6.17 15.78 5.38 16.34 3.98 16.34C3.25 16.34 2.45 16.13 1.74 15.09L1.23 15.53C2.14 16.72 3.05 17.01 3.98 17.01ZM4.00 13.06C2.59 13.06 1.75 11.89 1.75 10.11C1.75 8.43 2.83 7.17 4.14 7.17C4.82 7.17 5.47 7.45 6.19 8.16L6.19 11.83C5.47 12.61 4.73 13.06 4.00 13.06ZM13.93 13.96C14.62 13.96 15.41 13.76 16.03 13.51L15.82 12.91C15.32 13.13 14.77 13.26 14.08 13.26C12.66 13.26 12.26 12.47 12.26 11.12L12.26 7.32L15.76 7.32L15.76 6.64L12.26 6.64L12.26 3.89L11.48 4.54L11.48 6.64L9.48 6.64L9.48 7.32L11.45 7.32L11.45 11.09C11.45 12.80 12.04 13.96 13.93 13.96ZM18.21 13.78L19.03 13.78L19.03 8.71C19.94 7.67 20.55 7.18 21.45 7.18C22.71 7.18 23.23 7.92 23.23 9.44L23.23 13.78L24.04 13.78L24.04 9.32C24.04 7.42 23.28 6.47 21.64 6.47C20.58 6.47 19.78 7.10 18.98 8.01L19.03 6.17L19.03 3.57L18.21 3.57ZM28.77 13.96C29.83 13.96 30.66 13.31 31.37 12.43L31.43 12.43L31.50 13.78L32.17 13.78L32.17 6.64L31.36 6.64L31.36 11.70C30.49 12.75 29.85 13.26 28.97 13.26C27.69 13.26 27.19 12.52 27.19 10.98L27.19 6.64L26.36 6.64L26.36 11.09C26.36 13.01 27.13 13.96 28.77 13.96ZM34.64 13.78L35.52 13.78L36.81 11.93C37.11 11.47 37.41 11.03 37.72 10.61L37.77 10.61C38.08 11.02 38.42 11.51 38.71 11.93L40.04 13.78L40.95 13.78L38.28 10.12L40.75 6.64L39.89 6.64L38.71 8.34C38.46 8.76 38.15 9.20 37.87 9.59L37.81 9.59C37.52 9.20 37.24 8.78 36.99 8.41L35.77 6.64L34.85 6.64L37.30 10.08Z"></path></g><!----><!----></svg>